<?xml version="1.0" encoding="UTF-8" standalone="no"?><!DOCTYPE svg PUBLIC "-//W3C//DTD SVG 1.1//EN" "http://www.w3.org/Graphics/SVG/1.1/DTD/svg11.dtd"><svg width="100%" height="100%" viewBox="0 0 1475 1492" version="1.1" xmlns="http://www.w3.org/2000/svg" xmlns:xlink="http://www.w3.org/1999/xlink" xml:space="preserve" xmlns:serif="http://www.serif.com/" style="fill-rule:evenodd;clip-rule:evenodd;stroke-linecap:round;stroke-linejoin:round;stroke-miterlimit:10;"><g id="Doors"><rect x="76.792" y="1124.93" width="2.5" height="85.5" style="fill:none;stroke:#000;stroke-width:2.92px;"/><rect x="245.792" y="1124.93" width="2.5" height="85.5" style="fill:none;stroke:#000;stroke-width:2.92px;"/><path d="M1225.79,849.435l-68.5,-0l-0,-2l68.5,-0l-0,2" style="fill:none;fill-rule:nonzero;stroke:#000;stroke-width:3px;"/><path d="M1225.79,713.935l-69.5,-0l-0,-2.5l69.5,-0l-0,2.5" style="fill:none;fill-rule:nonzero;stroke:#000;stroke-width:3px;"/><path d="M1225.79,595.435l-0,-2.5l-69.5,-0l-0,2.5l69.5,-0" style="fill:none;fill-rule:nonzero;stroke:#000;stroke-width:3px;"/><path d="M1225.79,459.435l-0,-2l-68.5,-0l-0,2l68.5,-0" style="fill:none;fill-rule:nonzero;stroke:#000;stroke-width:3px;"/><path d="M1225.79,459.435l-0,-2l-68.5,-0l-0,2l68.5,-0" style="fill:none;fill-rule:nonzero;stroke:#000;stroke-width:3px;"/><path d="M1225.79,373.767l-68.5,-0l-0,-2.832l68.5,-0l-0,2.832" style="fill:none;fill-rule:nonzero;stroke:#000;stroke-width:2.84px;"/><path d="M81.792,1379.93l-2.5,-0l-0,85.5l2.5,-0l-0,-85.5" style="fill:none;fill-rule:nonzero;stroke:#000;stroke-width:2.92px;"/><path d="M250.792,1379.93l-2.5,-0l-0,86l2.5,-0l-0,-86" style="fill:none;fill-rule:nonzero;stroke:#000;stroke-width:2.92px;"/><path d="M1323.79,1098.43l-2.5,-0l-0,43.5l2.5,-0l-0,-43.5" style="fill:none;fill-rule:nonzero;stroke:#000;stroke-width:2.92px;"/><rect x="1211.79" y="1098.43" width="2" height="68.5" style="fill:none;fill-rule:nonzero;stroke:#000;stroke-width:2.92px;"/><g id="Door-outlines" serif:id="Door outlines"><path d="M162.292,1125.19c-0,47.359 38.391,85.75 85.75,85.75" style="fill:none;fill-rule:nonzero;stroke:#000;stroke-width:1.67px;stroke-linejoin:miter;stroke-dasharray:5,5,0,0,0,0;"/><path d="M76.542,1210.45c47.082,-0.001 85.749,-38.169 85.75,-85.252" style="fill:none;fill-rule:nonzero;stroke:#000;stroke-width:1.67px;stroke-linejoin:miter;stroke-dasharray:5,5,0,0,0,0;"/><path d="M1156.28,711.685c-0,38.245 31.004,69.25 69.25,69.249" style="fill:none;fill-rule:nonzero;stroke:#000;stroke-width:1.67px;stroke-linejoin:miter;stroke-dasharray:5,5,0,0,0,0;"/><path d="M1225.53,780.935c-37.969,-0 -68.75,30.78 -68.75,68.75" style="fill:none;fill-rule:nonzero;stroke:#000;stroke-width:1.67px;stroke-linejoin:miter;stroke-dasharray:5,5,0,0,0,0;"/><path d="M1225.54,526.422c-38.244,-0.003 -69.251,31.003 -69.247,69.247" style="fill:none;fill-rule:nonzero;stroke:#000;stroke-width:1.67px;stroke-linejoin:miter;stroke-dasharray:5,5,0,0,0,0;"/><path d="M1156.81,457.669c-0,37.972 30.78,68.752 68.752,68.752" style="fill:none;fill-rule:nonzero;stroke:#000;stroke-width:1.67px;stroke-linejoin:miter;stroke-dasharray:5,5,0,0,0,0;"/><path d="M1225.79,305.435l-12,1l-11.5,3l-11,5l-9.5,7l-8.5,8.5l-7,9.5l-5,11l-3,11.5l-1,12" style="fill:none;fill-rule:nonzero;stroke:#000;stroke-width:1.67px;stroke-linejoin:miter;stroke-dasharray:5,5,0,0,0,0;"/><path d="M164.791,1380.19c0,47.358 38.392,85.75 85.751,85.75" style="fill:none;fill-rule:nonzero;stroke:#000;stroke-width:1.67px;stroke-linejoin:miter;stroke-dasharray:5,5,0,0,0,0;"/><path d="M79.041,1465.45c47.083,-0.001 85.75,-38.17 85.75,-85.252" style="fill:none;fill-rule:nonzero;stroke:#000;stroke-width:1.67px;stroke-linejoin:miter;stroke-dasharray:5,5,0,0,0,0;"/><path d="M1280.29,1098.68c0.001,23.886 21.792,42.983 43.251,43.25" style="fill:none;fill-rule:nonzero;stroke:#000;stroke-width:1.67px;stroke-linejoin:miter;stroke-dasharray:5,5,0,0,0,0;"/><path d="M1211.54,1167.45c37.969,0 68.75,-30.78 68.75,-68.75" style="fill:none;fill-rule:nonzero;stroke:#000;stroke-width:1.67px;stroke-linejoin:miter;stroke-dasharray:5,5,0,0,0,0;"/></g></g><g id="Walls"><path id="Middle-wall" serif:id="Middle wall" d="M1233.29,711.435l-0,-113m-7.5,-0l-0,113.25m-0,-3.25l7.5,-0m-0,3l-7.5,-0m7.5,-113l-0,-3m-0,-0l-7.5,-0m-0,-0l-0,3m-0,-0l7.5,-0m-7.5,-0l-0,-3" style="fill:none;fill-rule:nonzero;stroke:#000;stroke-width:1.67px;"/><path id="Glass" d="M1091.29,1447.1l-666,0" style="fill:none;fill-rule:nonzero;stroke:#000;stroke-width:2.09px;"/><path id="Top-middle-wall" serif:id="Top middle wall" d="M253.792,1379.93l-0,-7.5m171.5,61l-109.5,-0m-23,23l132.5,-0l-0,-23m-109.5,-0l-0,-316.5m-7.5,8l-0,247.5m-57.5,7.5l42,-0m15.5,-7.5l-57.5,-0m65,-255.5l-67.5,-0m-0,8l60,-0m-60,-0l-0,-8m3,-0l-0,8m-0.5,255l-0,-7.5m42,7.5l-0,76.5" style="fill:none;fill-rule:nonzero;stroke:#000;stroke-width:2.08px;"/><path id="Top-right-wall" serif:id="Top right wall" d="M50.292,1379.93l29,-0m-3,-7.5l-46.5,-0m47,-255.5l-54.5,-0m7.5,8l47,-0m-47,247.5l-0,-247.5m-7.5,-8l-0,339.5m51.5,-339.5l-0,8m3,-0l-0,-8m2.5,263l-0,-7.5m-0,-0l-3,-0m-0,-0l-0,7.5m-26,76.5l-0,-76.5m-28,76.5l28,-0" style="fill:none;fill-rule:nonzero;stroke:#000;stroke-width:2.08px;"/><path id="Top-left-wall" serif:id="Top left wall" d="M1211.79,1090.93l-31,-0m-0,342.5l-89.5,-0l-0,14m120.5,-349l-22.726,-0l-0,358l-97.774,-0m-0,-0l-0,-9m89.5,-356.5l-0,342.5m31,-335l-0,-7.5m-3.5,-0l-0,7.5" style="fill:none;fill-rule:nonzero;stroke:#000;stroke-width:2.08px;"/><path id="Bottom-wall" serif:id="Bottom wall" d="M1233.29,456.935l-0,-51.119m-0,-6.881l-0,-25m-7.5,-0l-0,83m7.5,-155l-0,-274.5m-7.5,-0l-0,274.5l7.5,-0m-0,152l-7.5,-0m-0,3l7.5,-0m-0,-155l-0,3.5l-7.5,-0l-0,-3.5m-0,72l7.5,-0m-0,3l-7.5,-0m218.5,22l-211,-0m-0,6.881l100.5,0m110.5,-6.881l-0,-371.5m-0,-0l-211,-0m-7.667,-0l-788.125,-0l-0.194,960.065m795.986,-134.565l-7.5,-0m-0,-3.5l7.5,-0m211.083,241.5l-120.583,-0.084m-0,7.584l128.916,-0l0,-189l-111.416,-0m-115.5,7.232l218.503,0.268m-211.003,-7.5l-0,-60m-7.5,-0l-0,67.232m115.5,-7.232l-0,-503.619m-17.5,685.035l-0,7.584m3,-0l-0,-7.584m117.583,0.084l-0.08,-174m-110.503,-511.119l-0,503.619m-0,-0l-100.5,-0m108,-504l110.364,-0l-0,-385.129l-1020.61,-0l-0,967.194m-0,0l6.264,-0" style="fill:none;fill-rule:nonzero;stroke:#000;stroke-width:2.08px;"/><path d="M50,987.5l381.042,0" style="fill:none;stroke:#000;stroke-width:2.08px;"/></g><g id="Pillars"><path d="M713.792,207.185c-0,-12.289 -9.962,-22.25 -22.25,-22.25c-12.289,-0 -22.25,9.961 -22.25,22.25m-0,-0c-0,12.288 9.961,22.25 22.25,22.25c12.288,-0 22.25,-9.962 22.25,-22.25" style="fill:none;fill-rule:nonzero;stroke:#000;stroke-width:2.08px;"/><path d="M1379.79,207.185c-0,-12.289 -9.962,-22.25 -22.25,-22.25c-12.289,-0 -22.25,9.961 -22.25,22.25m-0,-0c-0,12.288 9.961,22.25 22.25,22.25c12.288,-0 22.25,-9.962 22.25,-22.25" style="fill:none;fill-rule:nonzero;stroke:#000;stroke-width:2.08px;"/><path d="M383.987,1405.6c-0,-14.221 -11.529,-25.75 -25.75,-25.75c-14.222,0 -25.75,11.529 -25.75,25.75m-0,0c-0,14.222 11.528,25.75 25.75,25.75c14.221,0 25.75,-11.528 25.75,-25.75" style="fill:none;fill-rule:nonzero;stroke:#000;stroke-width:2.08px;"/><path d="M717.292,873.185c-0,-14.222 -11.529,-25.75 -25.75,-25.75c-14.222,-0 -25.75,11.528 -25.75,25.75m-0,-0c-0,14.221 11.528,25.75 25.75,25.75c14.221,-0 25.75,-11.529 25.75,-25.75" style="fill:none;fill-rule:nonzero;stroke:#000;stroke-width:2.08px;"/></g><g transform="matrix(0.864605,-2.11767e-16,2.11767e-16,0.864605,1234.4,1187.75)"><text x="5px" y="70px" style="font-family:'Futura-Medium', 'Futura', sans-serif;font-weight:500;font-size:48.192px;">S<tspan x="33.92px 47.097px 65.851px 92.112px " y="70px 70px 70px 70px ">truc</tspan>tur<tspan x="172.211px 198.872px " y="70px 70px ">es</tspan></text><g transform="matrix(48.1915,0,0,48.1915,84.1584,119.627)"></g><text x="5px" y="119.627px" style="font-family:'Futura-Medium', 'Futura', sans-serif;font-weight:500;font-size:48.192px;">Lab</text></g><g transform="matrix(0.864605,-2.11767e-16,2.11767e-16,0.864605,55.5728,450.057)"><text x="5px" y="70px" style="font-family:'Futura-Medium', 'Futura', sans-serif;font-weight:500;font-size:48.192px;">Engineer<tspan x="198.025px 210.026px " y="70px 70px ">in</tspan>g</text><text x="5px" y="119.627px" style="font-family:'Futura-Medium', 'Futura', sans-serif;font-weight:500;font-size:48.192px;">Applications</text><g transform="matrix(48.1915,0,0,48.1915,228.686,169.254)"></g><text x="5px" y="169.254px" style="font-family:'Futura-Medium', 'Futura', sans-serif;font-weight:500;font-size:48.192px;">W<tspan x="53.121px 82.088px 100.842px 124.844px " y="169.254px 169.254px 169.254px 169.254px ">orks</tspan>hop</text></g><g id="Sinks"><g id="Sink"><circle cx="1168.92" cy="1199.35" r="1.207" style="fill:none;stroke:#000;stroke-width:0.83px;stroke-miterlimit:1.5;"/><path d="M1177.46,1201.03l-7.132,-0.839" style="fill:none;fill-rule:nonzero;stroke:#000;stroke-width:1.13px;"/><path d="M1170.33,1198.51l7.132,-0.84" style="fill:none;fill-rule:nonzero;stroke:#000;stroke-width:1.13px;"/><path d="M1177.46,1197.67c1.063,-0.002 1.836,0.762 1.679,1.679c0.167,0.978 -0.597,1.75 -1.679,1.678" style="fill:none;fill-rule:nonzero;stroke:#000;stroke-width:1.13px;"/><circle cx="1168.92" cy="1234.64" r="1.207" style="fill:none;stroke:#000;stroke-width:0.83px;stroke-miterlimit:1.5;"/><path d="M1177.46,1236.31l-7.132,-0.839" style="fill:none;fill-rule:nonzero;stroke:#000;stroke-width:1.13px;"/><path d="M1170.33,1233.79l7.132,-0.839" style="fill:none;fill-rule:nonzero;stroke:#000;stroke-width:1.13px;"/><path d="M1177.46,1232.95c1.063,-0.002 1.836,0.762 1.679,1.678c0.167,0.979 -0.597,1.751 -1.679,1.679" style="fill:none;fill-rule:nonzero;stroke:#000;stroke-width:1.13px;"/><path d="M1175.23,1262.5l0,-26.184" style="fill:none;stroke:#000;stroke-width:1.67px;"/><path d="M1175.23,1232.95l0,-31.717" style="fill:none;stroke:#000;stroke-width:1.67px;"/><path d="M1175.23,1197.67l0,-26.838" style="fill:none;stroke:#000;stroke-width:1.67px;"/><path d="M1179.56,1262.5l-33.726,0l0,-91.667l33.726,0" style="fill:none;stroke:#000;stroke-width:1.67px;"/></g><path d="M1180.77,1331.82l-19.683,-0c-0,-0 -10.987,-0.683 -10.987,-14.008c-0,0 -0,-0 -0,-0c-0,-0.119 -0.004,-0.239 -0.004,-0.359c0.004,-12.949 10.775,-13.649 10.775,-13.649l19.683,-0.215l0.216,28.231Zm-9.77,-12.284l-0,3.879m-0,-11.242l-0,3.879m-5.388,-9.231l-2.586,0m2.586,21.982l-2.586,-0m-6.249,-2.802c-1.577,-2.379 -2.003,-5.934 -2.003,-8.297c0,-1.616 0,-5.581 2.003,-8.081m-0,-0c1.325,-1.629 3.69,-2.736 6.249,-2.802m2.586,0c2.999,0.024 5.373,2.454 5.388,5.388m-7.974,16.594c-2.442,0.154 -4.818,-0.928 -6.249,-2.802m14.223,-2.586c0.076,3.043 -2.271,5.498 -5.388,5.388m-1.024,-9.749c0.685,0 1.24,-0.555 1.24,-1.24c-0,-0.684 -0.555,-1.239 -1.24,-1.239c-0.684,-0 -1.239,0.555 -1.239,1.239c-0,0.685 0.555,1.24 1.239,1.24Zm8.782,0.482l-7.327,-0.862m0,-1.724l7.327,-0.862m0,0c1.092,-0.003 1.886,0.782 1.724,1.724c0.172,1.005 -0.613,1.798 -1.724,1.724m-8.782,-0.482c0.685,0 1.24,-0.555 1.24,-1.24c-0,-0.684 -0.555,-1.239 -1.24,-1.239c-0.684,-0 -1.239,0.555 -1.239,1.239c-0,0.685 0.555,1.24 1.239,1.24Zm8.782,0.482l-7.327,-0.862m0,-1.724l7.327,-0.862m0,0c1.092,-0.003 1.886,0.782 1.724,1.724c0.172,1.005 -0.613,1.798 -1.724,1.724" style="fill:none;fill-rule:nonzero;stroke:#000;stroke-width:1.13px;"/></g><g id="Scale"><g><path d="M120.089,51.268l86.072,0" style="fill:none;"/><path d="M122.173,42.935l-0,16.666" style="fill:none;stroke:#000;stroke-width:4.17px;stroke-linejoin:miter;"/><path d="M204.077,42.935l0,16.666" style="fill:none;stroke:#000;stroke-width:4.17px;stroke-linejoin:miter;"/><path d="M122.173,51.268l81.904,0" style="fill:none;stroke:#000;stroke-width:4.17px;stroke-linejoin:miter;"/></g><g transform="matrix(45.3609,0,0,45.3609,193.119,94.8977)"></g><text x="129.242px" y="94.898px" style="font-family:'Futura-Medium', 'Futura', sans-serif;font-weight:500;font-size:45.361px;">1m</text></g><g id="Storage"><path id="H-bag-rack" serif:id="H bag rack" d="M385.028,1434.39l0,-57.166l123.305,-0l0,57.166l-123.305,0Zm2.083,-2.083l119.139,0l-0,-53l-119.139,0l0,53Z"/><path id="V-bag-rack" serif:id="V bag rack" d="M314.794,1376.27l-0,-178.905l31.25,0l-0,178.905l-31.25,0Zm2.083,-2.083l27.083,-0l0.001,-174.739l-27.084,0l0,174.739Z"/><g id="Rep-Storage" serif:id="Rep Storage"><rect x="1277.91" y="357.242" width="150" height="41.667" style="fill:none;stroke:#000;stroke-width:2.08px;"/><rect x="1391.67" y="87.5" width="52.154" height="220.833" style="fill:none;stroke:#000;stroke-width:2.08px;"/><rect x="1233.33" y="27.51" width="52.154" height="258.328" style="fill:none;stroke:#000;stroke-width:2.08px;"/></g><rect id="_3D-Print-Collection" serif:id="3D Print Collection" x="708.333" y="1417.93" width="108.333" height="29.167" style="fill:none;stroke:#000;stroke-width:2.08px;"/><rect id="Electronic-Components" serif:id="Electronic Components" x="1026.92" y="910.417" width="98.082" height="29.167" style="fill:none;stroke:#000;stroke-width:2.08px;"/></g><g id="Tools"><g id="CNC-Router" serif:id="CNC Router"><g><rect x="1277.94" y="922.479" width="97.058" height="42.104" style="fill:none;stroke:#000;stroke-width:2.08px;"/><rect x="1277.94" y="922.479" width="97.058" height="58.771" style="fill:none;stroke:#000;stroke-width:2.08px;"/><rect x="1282.1" y="969.792" width="78.313" height="6.25" style="fill:none;stroke:#000;stroke-width:2.08px;"/><circle cx="1367.71" cy="970.833" r="1.042" style="fill:none;stroke:#000;stroke-width:2.08px;"/><circle cx="1367.71" cy="975" r="1.042" style="fill:none;stroke:#000;stroke-width:2.08px;"/></g><g id="Laptop"><rect x="1225" y="945.833" width="33.333" height="4.167" style="fill:none;stroke:#000;stroke-width:2.08px;"/><rect x="1225" y="950" width="33.333" height="12.5" style="fill:none;stroke:#000;stroke-width:2.08px;"/><ellipse cx="1266.67" cy="956.25" rx="2.083" ry="4.167" style="fill:none;stroke:#000;stroke-width:2.08px;"/></g></g><g id="CNC-Mill" serif:id="CNC Mill"><g><rect x="794.609" y="437.062" width="97.058" height="42.104" style="fill:none;stroke:#000;stroke-width:2.08px;"/><rect x="794.609" y="437.062" width="97.058" height="58.771" style="fill:none;stroke:#000;stroke-width:2.08px;"/><rect x="797.917" y="484.375" width="79.167" height="6.25" style="fill:none;stroke:#000;stroke-width:2.08px;"/><circle cx="884.375" cy="485.417" r="1.042" style="fill:none;stroke:#000;stroke-width:2.08px;"/><circle cx="884.375" cy="489.583" r="1.042" style="fill:none;stroke:#000;stroke-width:2.08px;"/></g><g id="Laptop1" serif:id="Laptop"><rect x="900" y="450" width="33.333" height="4.167" style="fill:none;stroke:#000;stroke-width:2.08px;"/><rect x="900" y="454.167" width="33.333" height="12.5" style="fill:none;stroke:#000;stroke-width:2.08px;"/><ellipse cx="927.083" cy="481.25" rx="2.083" ry="4.167" style="fill:none;stroke:#000;stroke-width:2.08px;"/></g><rect x="891.667" y="437.5" width="47.917" height="58.333" style="fill:none;stroke:#000;stroke-width:2.08px;"/></g><g id="Water-Jet-Cutter" serif:id="Water Jet Cutter"><path d="M1133.33,1329.51l0,32.643c0,8.239 -6.689,14.928 -14.928,14.928l-40.977,0c-8.239,0 -14.928,-6.689 -14.928,-14.928l0,-32.643c0,-8.24 6.689,-14.929 14.928,-14.929l40.977,0c8.239,0 14.928,6.689 14.928,14.929Zm-2.083,-0c0,-7.09 -5.756,-12.845 -12.845,-12.845l-40.977,-0c-7.089,-0 -12.845,5.755 -12.845,12.845l0,32.643c0,7.089 5.756,12.845 12.845,12.845l40.977,0c7.089,0 12.845,-5.756 12.845,-12.845l0,-32.643Z"/><path d="M1129.17,1331.43l-0,28.803c-0,7.27 -5.903,13.172 -13.172,13.172l-36.156,-0c-7.27,-0 -13.172,-5.902 -13.172,-13.172l-0,-28.803c-0,-7.27 5.902,-13.172 13.172,-13.172l36.156,-0c7.269,-0 13.172,5.902 13.172,13.172Zm-2.084,-0c0,-6.12 -4.968,-11.089 -11.088,-11.089l-36.156,0c-6.12,0 -11.089,4.969 -11.089,11.089l0,28.803c0,6.12 4.969,11.089 11.089,11.089l36.156,-0c6.12,-0 11.088,-4.969 11.088,-11.089l0,-28.803Z"/><path d="M1067.83,1319.4l-1.191,1.191c-1.549,1.548 -4.063,1.548 -5.611,-0l-5.379,-5.379c-1.548,-1.548 -1.548,-4.062 0,-5.611l1.191,-1.191c1.549,-1.548 4.063,-1.548 5.611,0l5.379,5.379c1.548,1.548 1.548,4.062 -0,5.611Z" style="fill:none;stroke:#000;stroke-width:2.08px;"/><path d="M1129.13,1320.6l-1.191,-1.191c-1.548,-1.549 -1.548,-4.063 0,-5.611l5.379,-5.379c1.548,-1.548 4.062,-1.548 5.611,0l1.191,1.191c1.548,1.549 1.548,4.063 -0,5.611l-5.379,5.379c-1.548,1.548 -4.062,1.548 -5.611,-0Z" style="fill:none;stroke:#000;stroke-width:2.08px;"/><path d="M1063.62,1382.02l4.204,-4.204c1.548,-1.548 1.548,-4.063 -0,-5.611l-1.191,-1.191c-0.827,-0.827 -1.929,-1.212 -3.013,-1.156" style="fill:none;stroke:#000;stroke-width:2.08px;"/><path d="M1129.13,1371.01l-1.191,1.191c-1.548,1.548 -1.548,4.063 0,5.611l5.379,5.379c1.548,1.548 4.062,1.548 5.611,-0l1.191,-1.191c1.548,-1.549 1.548,-4.063 -0,-5.611l-5.379,-5.379c-1.548,-1.548 -4.062,-1.548 -5.611,0Z" style="fill:none;stroke:#000;stroke-width:2.08px;"/><path d="M1064.58,1356.25l0,41.667l-56.818,-0l0,-41.667l56.818,0Zm-2.083,2.083l-52.652,0l0.001,37.5l52.651,0l-0,-37.5Z"/><g id="Laptop2" serif:id="Laptop"><rect x="1024.72" y="1379.17" width="33.333" height="4.167" style="fill:none;stroke:#000;stroke-width:2.08px;"/><rect x="1024.72" y="1366.67" width="33.333" height="12.5" style="fill:none;stroke:#000;stroke-width:2.08px;"/><ellipse cx="1016.38" cy="1372.92" rx="2.083" ry="4.167" style="fill:none;stroke:#000;stroke-width:2.08px;"/></g><rect x="1088.56" y="1311.46" width="17.687" height="4.168" style="fill:none;stroke:#000;stroke-width:2.08px;"/></g><g id="Mounting-station" serif:id="Mounting station"><rect x="1393.38" y="1000" width="23.282" height="74.678" style="fill:none;stroke:#000;stroke-width:2.08px;"/></g><g id="_3D-Printer" serif:id="3D Printer"><rect x="836.232" y="1404.17" width="42.935" height="42.935" style="fill:none;stroke:#000;stroke-width:2.08px;"/><rect x="879.167" y="1404.17" width="42.935" height="42.935" style="fill:none;stroke:#000;stroke-width:2.08px;"/><g id="Laptop3" serif:id="Laptop"><path d="M962.5,1307.29l-4.167,-0l0,-33.334l4.167,0l0,33.334Z" style="fill:none;stroke:#000;stroke-width:2.08px;"/><path d="M958.333,1307.29l-12.5,-0l0,-33.334l12.5,0l0,33.334Z" style="fill:none;stroke:#000;stroke-width:2.08px;"/><path d="M956.25,1315.62c0,1.15 -1.867,2.083 -4.167,2.083c-2.299,0 -4.166,-0.933 -4.166,-2.083c-0,-1.15 1.867,-2.083 4.166,-2.083c2.3,-0 4.167,0.933 4.167,2.083Z" style="fill:none;stroke:#000;stroke-width:2.08px;"/></g></g><g id="Laser-Cutter" serif:id="Laser Cutter"><g id="Laserscript-Laser-Cutter" serif:id="Laserscript Laser Cutter"><path d="M508.333,1011.88l0,78.333c0,1.955 -1.587,3.542 -3.541,3.542l-67.292,0l0,-85.417l67.292,0c1.954,0 3.541,1.587 3.541,3.542Z" style="fill:none;stroke:#000;stroke-width:2.08px;"/><path d="M496.866,1016.36l-0,67.282c-0,1.302 -1.057,2.359 -2.359,2.359l-42.446,-0c-1.302,-0 -2.359,-1.057 -2.359,-2.359l0,-67.282c0,-1.302 1.057,-2.359 2.359,-2.359l42.446,0c1.302,0 2.359,1.057 2.359,2.359Z" style="fill:none;stroke:#000;stroke-width:2.08px;"/><rect x="437.5" y="968.75" width="45.833" height="39.583" style="fill:none;stroke:#000;stroke-width:2.08px;"/><g id="Laptop4" serif:id="Laptop"><path d="M445.833,971.875l4.167,-0l-0,33.333l-4.167,0l0,-33.333Z" style="fill:none;stroke:#000;stroke-width:2.08px;"/><path d="M450,971.875l12.5,0l0,33.333l-12.5,0l0,-33.333Z" style="fill:none;stroke:#000;stroke-width:2.08px;"/><path d="M468.75,977.083c-0,-1.149 1.867,-2.083 4.167,-2.083c2.299,0 4.166,0.934 4.166,2.083c0,1.15 -1.867,2.084 -4.166,2.084c-2.3,-0 -4.167,-0.934 -4.167,-2.084Z" style="fill:none;stroke:#000;stroke-width:2.08px;"/></g></g><g id="ULS-Laser-Cutter" serif:id="ULS Laser Cutter"><path d="M516.667,868.866l-0,95.601c-0,2.364 -1.919,4.283 -4.283,4.283l-74.884,0l0,-104.167l74.884,0c2.364,0 4.283,1.919 4.283,4.283Z" style="fill:none;stroke:#000;stroke-width:2.08px;"/><path d="M510.417,886.264l-0,74.073c-0,1.618 -1.313,2.931 -2.931,2.931l-48.306,-0c-1.617,-0 -2.93,-1.313 -2.93,-2.931l0,-74.073c0,-1.618 1.313,-2.931 2.93,-2.931l48.306,0c1.618,0 2.931,1.313 2.931,2.931Z" style="fill:none;stroke:#000;stroke-width:2.08px;"/><rect x="437.5" y="822.917" width="45.833" height="41.667" style="fill:none;stroke:#000;stroke-width:2.08px;"/><g id="Laptop5" serif:id="Laptop"><path d="M445.833,827.083l4.167,0l0,33.334l-4.167,-0l0,-33.334Z" style="fill:none;stroke:#000;stroke-width:2.08px;"/><path d="M450,827.083l12.5,0l0,33.334l-12.5,-0l0,-33.334Z" style="fill:none;stroke:#000;stroke-width:2.08px;"/><path d="M468.75,832.292c0,-1.15 1.867,-2.084 4.167,-2.084c2.299,0 4.166,0.934 4.166,2.084c0,1.149 -1.867,2.083 -4.166,2.083c-2.3,0 -4.167,-0.934 -4.167,-2.083Z" style="fill:none;stroke:#000;stroke-width:2.08px;"/></g><rect x="516.667" y="906.25" width="4.167" height="20.833" style="fill:none;stroke:#000;stroke-width:2.08px;"/></g><g id="ULS-Laser-Cutter1" serif:id="ULS Laser Cutter"><path d="M516.667,723.033l-0,95.601c-0,2.364 -1.919,4.283 -4.283,4.283l-74.884,-0l0,-104.167l74.884,0c2.364,0 4.283,1.919 4.283,4.283Z" style="fill:none;stroke:#000;stroke-width:2.08px;"/><path d="M510.417,740.43l-0,74.074c-0,1.617 -1.313,2.93 -2.931,2.93l-48.306,0c-1.617,0 -2.93,-1.313 -2.93,-2.93l0,-74.074c0,-1.617 1.313,-2.93 2.93,-2.93l48.306,0c1.618,0 2.931,1.313 2.931,2.93Z" style="fill:none;stroke:#000;stroke-width:2.08px;"/><rect x="437.5" y="677.083" width="45.833" height="41.667" style="fill:none;stroke:#000;stroke-width:2.08px;"/><g id="Laptop6" serif:id="Laptop"><path d="M445.833,681.25l4.167,0l0,33.333l-4.167,0l0,-33.333Z" style="fill:none;stroke:#000;stroke-width:2.08px;"/><path d="M450,681.25l12.5,0l0,33.333l-12.5,0l0,-33.333Z" style="fill:none;stroke:#000;stroke-width:2.08px;"/><path d="M468.75,686.458c0,-1.149 1.867,-2.083 4.167,-2.083c2.299,0 4.166,0.934 4.166,2.083c0,1.15 -1.867,2.084 -4.166,2.084c-2.3,-0 -4.167,-0.934 -4.167,-2.084Z" style="fill:none;stroke:#000;stroke-width:2.08px;"/></g><rect x="516.667" y="760.417" width="4.167" height="20.833" style="fill:none;stroke:#000;stroke-width:2.08px;"/></g><g id="ULS-Laser-Cutter2" serif:id="ULS Laser Cutter"><path d="M516.667,577.199l-0,95.602c-0,2.363 -1.919,4.282 -4.283,4.282l-74.884,0l0,-104.166l74.884,-0c2.364,-0 4.283,1.919 4.283,4.282Z" style="fill:none;stroke:#000;stroke-width:2.08px;"/><path d="M510.417,594.597l-0,74.074c-0,1.617 -1.313,2.93 -2.931,2.93l-48.306,-0c-1.617,-0 -2.93,-1.313 -2.93,-2.93l0,-74.074c0,-1.617 1.313,-2.93 2.93,-2.93l48.306,-0c1.618,-0 2.931,1.313 2.931,2.93Z" style="fill:none;stroke:#000;stroke-width:2.08px;"/><rect x="437.5" y="531.25" width="45.833" height="41.667" style="fill:none;stroke:#000;stroke-width:2.08px;"/><g id="Laptop7" serif:id="Laptop"><path d="M445.833,535.417l4.167,-0l0,33.333l-4.167,0l0,-33.333Z" style="fill:none;stroke:#000;stroke-width:2.08px;"/><path d="M450,535.417l12.5,-0l0,33.333l-12.5,0l0,-33.333Z" style="fill:none;stroke:#000;stroke-width:2.08px;"/><path d="M468.75,540.625c0,-1.15 1.867,-2.083 4.167,-2.083c2.299,-0 4.166,0.933 4.166,2.083c0,1.15 -1.867,2.083 -4.166,2.083c-2.3,0 -4.167,-0.933 -4.167,-2.083Z" style="fill:none;stroke:#000;stroke-width:2.08px;"/></g><rect x="516.667" y="614.583" width="4.167" height="20.833" style="fill:none;stroke:#000;stroke-width:2.08px;"/></g></g><g id="CoSHH-Cabinates" serif:id="CoSHH Cabinates"><rect x="1238.76" y="364.563" width="34.158" height="34.424" style="fill:none;stroke:#000;stroke-width:2.08px;"/><path d="M479.167,391.4l-29.167,0l0,-34.158l29.167,0l-0,34.158Z" style="fill:none;stroke:#000;stroke-width:2.08px;"/><path d="M484.384,365.42l0,1.672c0,0.462 -0.374,0.836 -0.836,0.836l-4.381,0l-0,-3.345l4.381,0c0.462,0 0.836,0.375 0.836,0.837Z" style="fill:none;stroke:#000;stroke-width:2.08px;"/><path d="M1245.23,359.346l1.672,-0c0.462,-0 0.836,0.374 0.836,0.836l0,4.381l-3.345,0l0,-4.381c0,-0.462 0.375,-0.836 0.837,-0.836Z" style="fill:none;stroke:#000;stroke-width:2.08px;"/></g><g id="Scroll-Saw" serif:id="Scroll Saw"><path d="M679.167,556.403l-0,6.25l-29.167,-0c-2.431,-0 -4.167,-1.141 -4.167,-3.125c0,-1.997 1.736,-3.125 4.167,-3.125l29.167,-0Z" style="fill:none;stroke:#000;stroke-width:2.08px;"/><path d="M653.359,556.403l-0,6.25" style="fill:none;stroke:#000;stroke-width:2.08px;"/><path d="M662.5,562.653l0,4.014l-10.417,2.388l-6.965,0c-4.205,0 -7.618,-3.413 -7.618,-7.617l0,-3.814c0,-4.208 3.416,-7.624 7.624,-7.624l6.959,-0l10.417,2.083l0,4.32l16.667,-0l-0,6.25l-16.667,-0Z" style="fill:none;stroke:#000;stroke-width:2.08px;"/></g><g id="Vacuum-Former" serif:id="Vacuum Former"><path d="M864.583,331.25l0,87.5c0,3.449 -2.8,6.25 -6.25,6.25l-50.136,0c-3.45,0 -6.25,-2.801 -6.25,-6.25l-0,-87.5c-0,-3.449 2.8,-6.25 6.25,-6.25l50.136,0c3.45,0 6.25,2.801 6.25,6.25Z" style="fill:none;stroke:#000;stroke-width:2.08px;"/><path d="M864.583,331.25l0,5.75l-62.636,0l-0,-5.75c-0,-3.449 2.8,-6.25 6.25,-6.25l50.136,0c3.45,0 6.25,2.801 6.25,6.25Z" style="fill:none;stroke:#000;stroke-width:2.08px;"/><path d="M864.583,387.962l0,30.788c0,3.449 -2.8,6.25 -6.25,6.25l-50.136,-0c-3.45,-0 -6.25,-2.801 -6.25,-6.25l-0,-30.788c-0,-3.45 2.8,-6.25 6.25,-6.25l50.136,-0c3.45,-0 6.25,2.8 6.25,6.25Z" style="fill:none;stroke:#000;stroke-width:2.08px;"/><rect x="810.417" y="343.886" width="45.833" height="26.948" style="fill:none;stroke:#000;stroke-width:2.08px;"/><rect x="825" y="377.097" width="16.667" height="4.284" style="fill:none;stroke:#000;stroke-width:2.08px;"/><circle cx="812.5" cy="331.25" r="2.083" style="fill:none;stroke:#000;stroke-width:2.08px;"/><circle cx="822.917" cy="331.25" r="2.083" style="fill:none;stroke:#000;stroke-width:2.08px;"/><circle cx="833.333" cy="331.25" r="2.083" style="fill:none;stroke:#000;stroke-width:2.08px;"/><circle cx="843.75" cy="331.25" r="2.083" style="fill:none;stroke:#000;stroke-width:2.08px;"/><circle cx="854.167" cy="331.25" r="2.083" style="fill:none;stroke:#000;stroke-width:2.08px;"/></g><rect id="_3D-Printer-Maintence-cupboard" serif:id="3D Printer Maintence cupboard" x="941.667" y="1416.67" width="62.5" height="30.435" style="fill:none;stroke:#000;stroke-width:2.08px;"/><g id="Mass-Balance" serif:id="Mass Balance"><path d="M662.5,458.333l0,25l-22.917,0c-3.449,0 -6.25,-2.8 -6.25,-6.25l0,-12.5c0,-3.449 2.801,-6.25 6.25,-6.25l22.917,0Z" style="fill:none;stroke:#000;stroke-width:2.08px;"/><circle cx="650" cy="470.833" r="10" style="fill:none;stroke:#000;stroke-width:2.08px;"/></g><rect id="Fastenings" x="437.5" y="400" width="20.833" height="131.25" style="fill:none;stroke:#000;stroke-width:2.08px;"/><rect id="Unpowered-Handtools" serif:id="Unpowered Handtools" x="437.5" y="291.667" width="12.5" height="99.734" style="fill:none;stroke:#000;stroke-width:2.08px;"/><g id="Hot-Wire-Cutter" serif:id="Hot Wire Cutter"><path d="M670.833,388.181l0,23.638c0,1.526 -1.238,2.764 -2.764,2.764l-31.971,0c-1.526,0 -2.765,-1.238 -2.765,-2.764l0,-23.638c0,-1.526 1.239,-2.764 2.765,-2.764l31.971,-0c1.526,-0 2.764,1.238 2.764,2.764Z" style="fill:none;stroke:#000;stroke-width:2.08px;"/><path d="M670.833,397.917l0,4.166l-23.958,0c-0.575,0 -1.042,-0.466 -1.042,-1.041l0,-2.084c0,-0.575 0.467,-1.041 1.042,-1.041l23.958,-0Z" style="fill:none;stroke:#000;stroke-width:2.08px;"/></g><g id="Wooden-Bandsaw" serif:id="Wooden Bandsaw"><rect x="637.5" y="33.333" width="22.917" height="16.667" style="fill:none;stroke:#000;stroke-width:2.08px;"/><path d="M660.417,50l-0,38.021c-0,3.162 -2.567,5.729 -5.73,5.729l-11.458,0c-3.162,0 -5.729,-2.567 -5.729,-5.729l0,-38.021l22.917,0Z" style="fill:none;stroke:#000;stroke-width:2.08px;"/><path d="M637.5,64.583l-8.333,0l-0,-1.785l8.333,-0" style="fill:none;stroke:#000;stroke-width:2.08px;"/><path d="M660.417,62.798l8.333,-0l0,1.785l-8.333,0" style="fill:none;stroke:#000;stroke-width:2.08px;"/><path d="M660.417,54.167l2.395,-0c3.277,-0 5.938,2.66 5.938,5.937l0,34.355c0,3.277 -2.661,5.938 -5.938,5.938l-27.708,-0c-3.277,-0 -5.937,-2.661 -5.937,-5.938l-0,-34.355c-0,-3.277 2.66,-5.937 5.937,-5.937l2.396,-0" style="fill:none;stroke:#000;stroke-width:2.08px;"/></g><g id="Metal-Bandsaw" serif:id="Metal Bandsaw"><path d="M456.318,162.5l20.175,-0l0,39.583l-20.175,0l-0,-39.583Z" style="fill:none;stroke:#000;stroke-width:2.08px;"/><path d="M476.493,162.5l46.026,5.921c3.827,0 6.935,3.108 6.935,6.935l-0,13.871c-0,3.828 -3.108,6.935 -6.935,6.935l-46.026,5.921l0,-39.583Z" style="fill:none;stroke:#000;stroke-width:2.08px;"/><path d="M481.925,163.187c0.97,-2.823 3.65,-4.854 6.8,-4.854l41.587,0c3.967,0 7.188,3.221 7.188,7.188l0,33.541c0,3.967 -3.221,7.188 -7.188,7.188l-41.587,0c-3.15,0 -5.83,-2.031 -6.8,-4.854" style="fill:none;stroke:#000;stroke-width:2.08px;"/></g><rect id="Tool-Draws" serif:id="Tool Draws" x="864.583" y="312.5" width="37.5" height="116.667" style="fill:none;stroke:#000;stroke-width:2.08px;"/><path id="Cyclone-Extractor" serif:id="Cyclone Extractor" d="M516.667,100.397l-58.334,-0l0,-58.73l58.334,-0l-0,0.087c15.142,1.166 27.083,13.839 27.083,29.278c0,15.439 -11.941,28.111 -27.083,29.277l-0,0.088Z" style="fill:none;stroke:#000;stroke-width:2.08px;"/><g id="Pillar-Drills" serif:id="Pillar Drills"><g id="Metal-Pillar-Drill" serif:id="Metal Pillar Drill"><g><path d="M788.913,58.482l11.607,0" style="fill:none;stroke:#000;stroke-width:2.08px;"/><circle cx="800.372" cy="58.482" r="1.339" style="fill:none;stroke:#000;stroke-width:2.08px;"/><circle cx="797.693" cy="50.149" r="1.339" style="fill:none;stroke:#000;stroke-width:2.08px;"/><circle cx="797.693" cy="66.518" r="1.339" style="fill:none;stroke:#000;stroke-width:2.08px;"/><path d="M788.913,58.482l8.291,8.036l-8.291,-8.036" style="fill:none;stroke:#000;stroke-width:2.08px;"/><path d="M788.913,58.482l8.291,-8.036l-8.291,8.036" style="fill:none;stroke:#000;stroke-width:2.08px;"/><rect x="787.5" y="56.373" width="2.826" height="4.218" style="fill:none;stroke:#000;stroke-width:2.08px;"/></g><path d="M787.5,38.415l-0,25.254c-0,2.804 -2.277,5.081 -5.081,5.081l-2.338,-0c-2.804,-0 -5.081,-2.277 -5.081,-5.081l-0,-25.254c-0,-2.805 2.277,-5.082 5.081,-5.082l2.338,0c2.804,0 5.081,2.277 5.081,5.082Z" style="fill:none;stroke:#000;stroke-width:2.08px;"/><path d="M787.5,52.083l3.044,0c0.619,0 1.123,0.504 1.123,1.123l-0,18.588c-0,0.619 -0.504,1.123 -1.123,1.123l-18.588,-0c-0.619,-0 -1.123,-0.504 -1.123,-1.123l0,-18.588c0,-0.619 0.504,-1.123 1.123,-1.123l3.044,0" style="fill:none;stroke:#000;stroke-width:2.08px;"/></g><g id="Wood-Pillar-Drill" serif:id="Wood Pillar Drill"><g><path d="M868.08,58.482l11.607,0" style="fill:none;stroke:#000;stroke-width:2.08px;"/><circle cx="879.538" cy="58.482" r="1.339" style="fill:none;stroke:#000;stroke-width:2.08px;"/><circle cx="876.86" cy="50.149" r="1.339" style="fill:none;stroke:#000;stroke-width:2.08px;"/><circle cx="876.86" cy="66.518" r="1.339" style="fill:none;stroke:#000;stroke-width:2.08px;"/><path d="M868.08,58.482l8.291,8.036l-8.291,-8.036" style="fill:none;stroke:#000;stroke-width:2.08px;"/><path d="M868.08,58.482l8.291,-8.036l-8.291,8.036" style="fill:none;stroke:#000;stroke-width:2.08px;"/><rect x="866.667" y="56.373" width="2.826" height="4.218" style="fill:none;stroke:#000;stroke-width:2.08px;"/></g><path d="M866.667,38.415l-0,25.254c-0,2.804 -2.277,5.081 -5.082,5.081l-2.337,-0c-2.804,-0 -5.081,-2.277 -5.081,-5.081l-0,-25.254c-0,-2.805 2.277,-5.082 5.081,-5.082l2.337,0c2.805,0 5.082,2.277 5.082,5.082Z" style="fill:none;stroke:#000;stroke-width:2.08px;"/><path d="M866.667,52.083l3.043,0c0.62,0 1.123,0.504 1.123,1.123l0,18.588c0,0.619 -0.503,1.123 -1.123,1.123l-18.587,-0c-0.62,-0 -1.123,-0.504 -1.123,-1.123l0,-18.588c0,-0.619 0.503,-1.123 1.123,-1.123l3.044,0" style="fill:none;stroke:#000;stroke-width:2.08px;"/></g></g><rect id="Flat-surface" serif:id="Flat surface" x="1193.96" y="202.083" width="25" height="25" style="fill:none;stroke:#000;stroke-width:2.08px;"/><rect id="Taps-and-whole-saws" serif:id="Taps and whole saws" x="897.917" y="27.51" width="39.583" height="57.907" style="fill:none;stroke:#000;stroke-width:2.08px;"/><g id="Drill-Bits" serif:id="Drill Bits"><rect x="901.042" y="45.833" width="33.333" height="16.667" style="fill:none;stroke:#000;stroke-width:2.08px;"/><path d="M901.251,68.75l32.915,0" style="fill:none;stroke:#000;stroke-width:2.08px;"/><path d="M901.46,75l32.915,0" style="fill:none;stroke:#000;stroke-width:2.08px;"/><rect x="901.042" y="45.833" width="33.333" height="35.417" style="fill:none;stroke:#000;stroke-width:2.08px;"/></g><g id="Hot-Glue-Gun" serif:id="Hot Glue Gun"><path d="M1204.17,150c-3.152,0 -3.152,8.333 -3.152,8.333l-0,5.34c-0,-0 -6.185,0.044 -7.052,0.91c-1.11,1.111 -1.473,4.777 0,6.25c0.847,0.847 13.302,-1.52 13.302,-1.52l-0,-10.98c-0,0 0.054,-8.333 -3.098,-8.333Z" style="fill:none;stroke:#000;stroke-width:2.08px;"/><path d="M1203.64,169.957l0,7.126l2.607,0l0,-7.638" style="fill:none;stroke:#000;stroke-width:2.08px;"/><path d="M1200.13,160.417c0,-0 -2.556,0.599 -2.383,2.383" style="fill:none;stroke:#000;stroke-width:2.08px;"/></g><g id="Line-Bender" serif:id="Line Bender"><rect x="1195.83" y="56.25" width="14.583" height="66.667" style="fill:none;stroke:#000;stroke-width:2.08px;"/><rect x="1210.42" y="56.25" width="6.25" height="66.667" style="fill:none;stroke:#000;stroke-width:2.08px;"/></g><g id="DC-Power-Supply" serif:id="DC Power Supply"><rect x="931.25" y="893.75" width="16.667" height="20.833" style="fill:none;stroke:#000;stroke-width:2.08px;"/><rect x="934.381" y="914.583" width="1.036" height="2.083" style="fill:none;stroke:#000;stroke-width:2.08px;"/><rect x="938.568" y="914.583" width="1.015" height="2.205" style="fill:none;stroke:#000;stroke-width:2.08px;"/><rect x="945.326" y="914.583" width="1.015" height="2.205" style="fill:none;stroke:#000;stroke-width:2.08px;"/></g><g id="Osciliscope"><rect x="881.25" y="891.545" width="39.583" height="18.871" style="fill:none;stroke:#000;stroke-width:2.08px;"/><rect x="909.32" y="910.417" width="1.097" height="2.083" style="fill:none;stroke:#000;stroke-width:2.08px;"/><rect x="915.598" y="910.417" width="1.069" height="2.083" style="fill:none;stroke:#000;stroke-width:2.08px;"/></g><g id="Jumper-Cables-and-Probes" serif:id="Jumper Cables and Probes"><path d="M755.421,893.404l-0,21.525c-0,1.026 -0.833,1.859 -1.859,1.859l-18.37,0c-1.026,0 -1.859,-0.833 -1.859,-1.859l0,-21.525c0,-1.026 0.833,-1.859 1.859,-1.859l18.37,0c1.026,0 1.859,0.833 1.859,1.859Z" style="fill:none;stroke:#000;stroke-width:2.08px;"/><path d="M830.502,893.404l-0,21.525c-0,1.026 -0.833,1.859 -1.86,1.859l-18.369,0c-1.026,0 -1.859,-0.833 -1.859,-1.859l0,-21.525c0,-1.026 0.833,-1.859 1.859,-1.859l18.369,0c1.027,0 1.86,0.833 1.86,1.859Z" style="fill:none;stroke:#000;stroke-width:2.08px;"/><path d="M792.921,893.404l-0,21.525c-0,1.026 -0.833,1.859 -1.859,1.859l-18.37,0c-1.026,0 -1.859,-0.833 -1.859,-1.859l0,-21.525c0,-1.026 0.833,-1.859 1.859,-1.859l18.37,0c1.026,0 1.859,0.833 1.859,1.859Z" style="fill:none;stroke:#000;stroke-width:2.08px;"/><path d="M867.921,893.404l-0,21.525c-0,1.026 -0.833,1.859 -1.859,1.859l-18.37,0c-1.026,0 -1.859,-0.833 -1.859,-1.859l0,-21.525c0,-1.026 0.833,-1.859 1.859,-1.859l18.37,0c1.026,0 1.859,0.833 1.859,1.859Z" style="fill:none;stroke:#000;stroke-width:2.08px;"/></g><rect id="Abrasive-Paper" serif:id="Abrasive Paper" x="879.167" y="320.833" width="16.667" height="41.667" style="fill:none;stroke:#000;stroke-width:2.08px;"/><g id="Hand-Drills" serif:id="Hand Drills"><path d="M879.688,381.25l-0,5.661l-5.668,-1.415l-0,-2.831l5.668,-1.415Z" style="fill:none;stroke:#000;stroke-width:2.08px;"/><path d="M879.688,381.25l13.252,0c1.094,0 1.982,0.888 1.982,1.981l-0,1.699c-0,1.093 -0.888,1.981 -1.982,1.981l-13.252,0l-0,-5.661Z" style="fill:none;stroke:#000;stroke-width:2.08px;"/><path d="M879.688,391.44l-0,5.661l-5.668,-1.415l-0,-2.83l5.668,-1.416Z" style="fill:none;stroke:#000;stroke-width:2.08px;"/><path d="M879.688,391.44l13.252,0c1.094,0 1.982,0.888 1.982,1.982l-0,1.698c-0,1.094 -0.888,1.981 -1.982,1.981l-13.252,0l-0,-5.661Z" style="fill:none;stroke:#000;stroke-width:2.08px;"/><path d="M879.688,401.63l-0,5.662l-5.668,-1.416l-0,-2.83l5.668,-1.416Z" style="fill:none;stroke:#000;stroke-width:2.08px;"/><path d="M879.688,401.63l13.252,0c1.094,0 1.982,0.888 1.982,1.982l-0,1.698c-0,1.094 -0.888,1.982 -1.982,1.982l-13.252,-0l-0,-5.662Z" style="fill:none;stroke:#000;stroke-width:2.08px;"/><path d="M898.958,415.626l0,8.331c0,0.576 -0.467,1.043 -1.043,1.043l-29.164,-0c-0.575,-0 -1.043,-0.467 -1.043,-1.043l0,-8.331c0,-0.575 0.468,-1.043 1.043,-1.043l29.164,0c0.576,0 1.043,0.468 1.043,1.043Z" style="fill:none;stroke:#000;stroke-width:2.08px;"/><path d="M888.542,414.583l-0,10.417" style="fill:none;stroke:#000;stroke-width:2.08px;"/><path d="M878.125,414.583l0,10.417" style="fill:none;stroke:#000;stroke-width:2.08px;"/><rect x="883.854" y="376.563" width="3.125" height="34.375" style="fill:none;stroke:#000;stroke-width:2.08px;"/></g><g id="Wood-and-Plastic-Belt-Sander" serif:id="Wood and Plastic Belt Sander"><path d="M1062.66,85.417c-0.107,-0.517 -0.163,-1.052 -0.163,-1.6l0,-34.301c0,-4.332 3.517,-7.849 7.849,-7.849l23.885,-0c4.332,-0 7.849,3.517 7.849,7.849l0,34.301c0,4.332 -3.517,7.85 -7.849,7.85l-6.734,-0" style="fill:none;stroke:#000;stroke-width:2.08px;"/><path d="M1096.69,91.667c0.114,0.324 0.176,0.672 0.176,1.035c-0,1.722 -1.398,3.119 -3.119,3.119c-1.721,0 -3.119,-1.397 -3.119,-3.119c0,-0.363 0.062,-0.711 0.176,-1.035" style="fill:none;stroke:#000;stroke-width:2.08px;"/><path d="M1062.5,85.417l25,-0l0,16.666c0,2.3 -1.867,4.167 -4.167,4.167l-16.666,0c-2.3,0 -4.167,-1.867 -4.167,-4.167l-0,-16.666Z" style="fill:none;stroke:#000;stroke-width:2.08px;"/><path d="M1087.5,61.667l0,23.75l-25,-0l0,-23.75c0,-1.84 1.494,-3.334 3.333,-3.334l18.334,0c1.839,0 3.333,1.494 3.333,3.334Z" style="fill:none;stroke:#000;stroke-width:2.08px;"/><path d="M1090.64,75l8.334,0" style="fill:none;stroke:#000;stroke-width:2.08px;"/><path d="M1087.5,66.25l0,-24.583" style="fill:none;stroke:#000;stroke-width:2.08px;"/><path d="M1087.5,79.167l14.583,-0" style="fill:none;stroke:#000;stroke-width:2.08px;"/><circle cx="1091.68" cy="85.79" r="1.042" style="fill:none;stroke:#000;stroke-width:2.08px;"/><circle cx="1096.89" cy="85.79" r="1.042" style="fill:none;stroke:#000;stroke-width:2.08px;"/><path d="M1090.64,71.875l8.334,0" style="fill:none;stroke:#000;stroke-width:2.08px;"/><path d="M1098.97,68.75l-8.334,0" style="fill:none;stroke:#000;stroke-width:2.08px;"/><path d="M1090.64,65.625l8.334,0" style="fill:none;stroke:#000;stroke-width:2.08px;"/><path d="M1090.64,62.5l8.334,0" style="fill:none;stroke:#000;stroke-width:2.08px;"/><path d="M1131.25,52.083l0,33.334c0,3.449 -2.801,6.25 -6.25,6.25l-12.5,-0c-3.449,-0 -6.25,-2.801 -6.25,-6.25l0,-33.334c0,-3.449 2.801,-6.25 6.25,-6.25l12.5,0c3.449,0 6.25,2.801 6.25,6.25Z" style="fill:none;stroke:#000;stroke-width:2.08px;"/></g><g id="Metal-Belt-Sander" serif:id="Metal Belt Sander"><path d="M956.413,85.417c-0.107,-0.517 -0.163,-1.052 -0.163,-1.6l0,-34.301c0,-4.332 3.517,-7.849 7.849,-7.849l23.885,-0c4.332,-0 7.849,3.517 7.849,7.849l0,34.301c0,4.332 -3.517,7.85 -7.849,7.85l-6.734,-0" style="fill:none;stroke:#000;stroke-width:2.08px;"/><path d="M990.443,91.667c0.114,0.324 0.176,0.672 0.176,1.035c-0,1.722 -1.398,3.119 -3.119,3.119c-1.721,0 -3.119,-1.397 -3.119,-3.119c0,-0.363 0.062,-0.711 0.176,-1.035" style="fill:none;stroke:#000;stroke-width:2.08px;"/><path d="M956.25,85.417l25,-0l0,16.666c0,2.3 -1.867,4.167 -4.167,4.167l-16.666,0c-2.3,0 -4.167,-1.867 -4.167,-4.167l0,-16.666Z" style="fill:none;stroke:#000;stroke-width:2.08px;"/><path d="M981.25,61.667l0,23.75l-25,-0l0,-23.75c0,-1.84 1.494,-3.334 3.333,-3.334l18.334,0c1.839,0 3.333,1.494 3.333,3.334Z" style="fill:none;stroke:#000;stroke-width:2.08px;"/><path d="M984.387,75l8.334,0" style="fill:none;stroke:#000;stroke-width:2.08px;"/><path d="M981.25,66.25l0,-24.583" style="fill:none;stroke:#000;stroke-width:2.08px;"/><path d="M981.25,79.167l14.583,-0" style="fill:none;stroke:#000;stroke-width:2.08px;"/><circle cx="985.429" cy="85.79" r="1.042" style="fill:none;stroke:#000;stroke-width:2.08px;"/><circle cx="990.637" cy="85.79" r="1.042" style="fill:none;stroke:#000;stroke-width:2.08px;"/><path d="M984.387,71.875l8.334,0" style="fill:none;stroke:#000;stroke-width:2.08px;"/><path d="M992.721,68.75l-8.334,0" style="fill:none;stroke:#000;stroke-width:2.08px;"/><path d="M984.387,65.625l8.334,0" style="fill:none;stroke:#000;stroke-width:2.08px;"/><path d="M984.387,62.5l8.334,0" style="fill:none;stroke:#000;stroke-width:2.08px;"/><circle cx="988.542" cy="52.083" r="4.167" style="fill:none;stroke:#000;stroke-width:2.08px;"/><circle cx="1013.54" cy="57.292" r="13.542" style="fill:none;stroke:#000;stroke-width:2.08px;"/></g></g><g id="Benches"><path id="Router" d="M1378.13,995.833l-163.001,0l0,-79.166l229.167,-0m-0,-0l-0,174.263l-66.166,-0l0,-95.097" style="fill:none;stroke:#000;stroke-width:2.08px;"/><path d="M850,1029.17l-0,308.333l-87.5,0l0,-308.333l87.5,-0Zm-2.083,2.083l-83.334,0l0,304.167l83.334,-0l-0,-304.167Z"/><path d="M1020.83,1029.17l0,308.333l-87.5,0l0,-308.333l87.5,-0Zm-2.083,2.083l-83.333,0l-0,304.167l83.333,-0l0,-304.167Z"/><rect x="971.875" y="1031.25" width="10.417" height="304.167" style="fill:none;stroke:#000;stroke-width:2.08px;"/><path id="Big-boi" serif:id="Big boi" d="M1016.67,656.25l-0,-395.833l83.333,-0l0,395.833m51.542,-0l-51.542,-0m51.542,-0l-0,83.333l-293.209,0m158.334,-83.333l-158.334,-0l0,83.333" style="fill:none;stroke:#000;stroke-width:2.08px;"/><path d="M1016.67,350l83.333,0" style="fill:none;stroke:#000;stroke-width:2.08px;"/><rect id="Little-thing" serif:id="Little thing" x="1185.63" y="387.287" width="39.796" height="58.76" style="fill:none;stroke:#000;stroke-width:2.08px;"/><rect id="Electronics" x="717.51" y="854.167" width="303.324" height="83.333" style="fill:none;stroke:#000;stroke-width:2.08px;"/><rect id="Hot-tools-area" serif:id="Hot tools area" x="1187.5" y="27.513" width="37.926" height="209.987" style="fill:none;stroke:#000;stroke-width:2.08px;"/><rect id="Wood-one" serif:id="Wood one" x="629.167" y="645.833" width="112.5" height="50" style="fill:none;stroke:#000;stroke-width:2.08px;"/><rect id="Wood-one1" serif:id="Wood one" x="614.583" y="295.833" width="106.25" height="62.5" style="fill:none;stroke:#000;stroke-width:2.08px;"/><g id="Air-Bench" serif:id="Air Bench"><rect x="629.167" y="512.5" width="70.833" height="133.333" style="fill:none;stroke:#000;stroke-width:2.08px;"/><rect x="629.167" y="358.333" width="70.833" height="133.333" style="fill:none;stroke:#000;stroke-width:2.08px;"/></g><rect id="Scrap-Materials" serif:id="Scrap Materials" x="1037.5" y="854.167" width="187.5" height="50" style="fill:none;stroke:#000;stroke-width:2.08px;"/><rect id="Electronics-Parts" serif:id="Electronics Parts" x="1020.83" y="904.167" width="193.75" height="41.667" style="fill:none;stroke:#000;stroke-width:2.08px;"/><rect id="Drill-Press" serif:id="Drill Press" x="737.5" y="27.51" width="160.417" height="50" style="fill:none;stroke:#000;stroke-width:2.08px;"/><rect id="Electronics-Hood" serif:id="Electronics Hood" x="725" y="860.417" width="227.083" height="60.417" style="fill:none;stroke:#000;stroke-width:2.08px;"/></g><path d="M665.792,873.185l-148.836,-0" style="fill:none;stroke:#000;stroke-width:2.08px;stroke-dasharray:6.25,6.25,0,0,0,0;"/><path d="M437.5,258.333l150,0l0,-112.5l600,0" style="fill:none;stroke:#000;stroke-width:2.08px;stroke-dasharray:6.25,6.25,0,0,0,0;"/><g id="Social-Area" serif:id="Social Area"><g><path d="M660.974,1401.43l-0,37.335c-0,4.599 -3.734,8.333 -8.334,8.333l-110.973,0c-4.6,0 -8.334,-3.734 -8.334,-8.333l0,-37.335c0,-4.599 3.734,-8.333 8.334,-8.333l110.973,-0c4.6,-0 8.334,3.734 8.334,8.333Z" style="fill:none;stroke:#000;stroke-width:2.08px;"/><path d="M645.833,1400l0,29.167l-95.833,-1.755l0,-27.412" style="fill:none;stroke:#000;stroke-width:2.08px;"/><path d="M550,1400c-0,-0 -0,-6.9 -8.333,-6.9" style="fill:none;stroke:#000;stroke-width:2.08px;"/><path d="M645.833,1400c0,0 0,-6.9 8.334,-6.9" style="fill:none;stroke:#000;stroke-width:2.08px;"/></g><g><path d="M722.917,1269.41l-0,49.092c-0,17.612 -14.299,31.911 -31.91,31.911l-4.91,-0c-6.773,-0 -12.273,-5.5 -12.273,-12.274l0,-88.366c0,-6.774 5.5,-12.273 12.273,-12.273l4.91,-0c17.611,-0 31.91,14.298 31.91,31.91Z" style="fill:none;stroke:#000;stroke-width:2.08px;"/><path d="M675,1245.83l7.318,0c16.043,0 29.068,13.025 29.068,29.068l0,37.698c0,16.043 -13.025,29.068 -29.068,29.068l-7.318,-0" style="fill:none;stroke:#000;stroke-width:2.08px;"/></g><g><path d="M484.241,1269.41l-0,49.092c-0,17.612 14.298,31.911 31.91,31.911l4.909,-0c6.774,-0 12.273,-5.5 12.273,-12.274l0,-88.366c0,-6.774 -5.499,-12.273 -12.273,-12.273l-4.909,-0c-17.612,-0 -31.91,14.298 -31.91,31.91Z" style="fill:none;stroke:#000;stroke-width:2.08px;"/><path d="M532.158,1245.83l-7.319,0c-16.043,0 -29.068,13.025 -29.068,29.068l0,37.698c0,16.043 13.025,29.068 29.068,29.068l7.319,-0" style="fill:none;stroke:#000;stroke-width:2.08px;"/></g><rect x="568.936" y="1250" width="70.462" height="90.34" style="fill:none;stroke:#000;stroke-width:2.08px;"/></g><g id="Reception"><rect x="464.583" y="1109.38" width="39.583" height="6.25" style="fill:none;stroke:#000;stroke-width:2.08px;"/><path d="M437.5,1132.29l-6.25,-0l-0,-35.417l6.25,0l-0,35.417Z" style="fill:none;stroke:#000;stroke-width:2.08px;"/><rect x="466.667" y="1127.08" width="33.333" height="12.5" style="fill:none;stroke:#000;stroke-width:2.08px;"/><rect x="427.083" y="1136.46" width="6.25" height="6.25" style="fill:none;stroke:#000;stroke-width:2.08px;"/><rect x="514.583" y="1098.96" width="16.667" height="12.5" style="fill:none;stroke:#000;stroke-width:2.08px;"/><rect x="446.875" y="1109.38" width="9.375" height="12.5" style="fill:none;stroke:#000;stroke-width:2.08px;"/><ellipse cx="508.333" cy="1133.33" rx="2.083" ry="4.167" style="fill:none;stroke:#000;stroke-width:2.08px;"/><rect x="420.833" y="1093.75" width="114.583" height="54.167" style="fill:none;stroke:#000;stroke-width:2.08px;"/></g><g id="Bins"><path id="Metal-Bin" serif:id="Metal Bin" d="M991.667,841.796l-0,12.371l-79.167,-0l0,-12.371c0,-4.671 3.792,-8.463 8.462,-8.463l62.242,0c4.671,0 8.463,3.792 8.463,8.463Z" style="fill:none;"/><clipPath id="_clip1"><path d="M991.667,841.796l-0,12.371l-79.167,-0l0,-12.371c0,-4.671 3.792,-8.463 8.462,-8.463l62.242,0c4.671,0 8.463,3.792 8.463,8.463Z"/></clipPath><g clip-path="url(#_clip1)"><path d="M987.5,842.317l0,11.85l-70.833,-0l-0,-11.85c-0,-2.659 2.158,-4.817 4.817,-4.817l61.199,0c2.659,0 4.817,2.158 4.817,4.817Z" style="fill:none;stroke:#000;stroke-width:2.08px;"/></g><path d="M991.667,841.796l-0,12.371l-79.167,-0l0,-12.371c0,-4.671 3.792,-8.463 8.462,-8.463l62.242,0c4.671,0 8.463,3.792 8.463,8.463Z" style="fill:none;stroke:#000;stroke-width:2.08px;"/><path id="Wood-Bin" serif:id="Wood Bin" d="M833.333,841.796l0,12.371l-79.166,-0l-0,-12.371c-0,-4.671 3.792,-8.463 8.462,-8.463l62.242,0c4.67,0 8.462,3.792 8.462,8.463Z" style="fill:none;"/><clipPath id="_clip2"><path id="Wood-Bin1" serif:id="Wood Bin" d="M833.333,841.796l0,12.371l-79.166,-0l-0,-12.371c-0,-4.671 3.792,-8.463 8.462,-8.463l62.242,0c4.67,0 8.462,3.792 8.462,8.463Z"/></clipPath><g clip-path="url(#_clip2)"><path d="M829.167,842.317l-0,11.85l-70.834,-0l0,-11.85c0,-2.659 2.159,-4.817 4.817,-4.817l61.2,0c2.658,0 4.817,2.158 4.817,4.817Z" style="fill:none;stroke:#000;stroke-width:2.08px;"/></g><path id="Wood-Bin2" serif:id="Wood Bin" d="M833.333,841.796l0,12.371l-79.166,-0l-0,-12.371c-0,-4.671 3.792,-8.463 8.462,-8.463l62.242,0c4.67,0 8.462,3.792 8.462,8.463Z" style="fill:none;stroke:#000;stroke-width:2.08px;"/><path id="Plastic-Bin" serif:id="Plastic Bin" d="M912.5,841.796l0,12.371l-79.167,-0l0,-12.371c0,-4.671 3.792,-8.463 8.463,-8.463l62.242,0c4.67,0 8.462,3.792 8.462,8.463Z" style="fill:none;"/><clipPath id="_clip3"><path d="M912.5,841.796l0,12.371l-79.167,-0l0,-12.371c0,-4.671 3.792,-8.463 8.463,-8.463l62.242,0c4.67,0 8.462,3.792 8.462,8.463Z"/></clipPath><g clip-path="url(#_clip3)"><path d="M908.333,842.317l0,11.85l-70.833,-0l0,-11.85c0,-2.659 2.158,-4.817 4.817,-4.817l61.199,0c2.659,0 4.817,2.158 4.817,4.817Z" style="fill:none;stroke:#000;stroke-width:2.08px;"/></g><path d="M912.5,841.796l0,12.371l-79.167,-0l0,-12.371c0,-4.671 3.792,-8.463 8.463,-8.463l62.242,0c4.67,0 8.462,3.792 8.462,8.463Z" style="fill:none;stroke:#000;stroke-width:2.08px;"/></g><g id="Vices"><g id="Vice"><rect x="728.38" y="662.5" width="2.356" height="10.417" style="fill:none;stroke:#000;stroke-width:2.08px;"/><rect x="736.167" y="662.5" width="5.532" height="10.417" style="fill:none;stroke:#000;stroke-width:2.08px;"/><rect x="709.423" y="662.5" width="5.532" height="10.417" style="fill:none;stroke:#000;stroke-width:2.08px;"/><rect x="714.954" y="660.996" width="13.425" height="13.425" style="fill:none;stroke:#000;stroke-width:2.08px;"/><path d="M736.167,656.25l-0,22.917c-1.941,-0.036 -5.432,-2.084 -5.432,-4.167l0,-14.583c0,-2.542 3.365,-4.167 5.432,-4.167Z" style="fill:none;stroke:#000;stroke-width:2.08px;"/><path d="M741.698,656.25l0,22.917c1.941,-0.036 5.432,-2.084 5.432,-4.167l-0,-14.583c-0,-2.542 -3.365,-4.167 -5.432,-4.167Z" style="fill:none;stroke:#000;stroke-width:2.08px;"/></g><g id="Vice1" serif:id="Vice"><rect x="707.463" y="319.792" width="2.356" height="10.417" style="fill:none;stroke:#000;stroke-width:2.08px;"/><rect x="715.25" y="319.792" width="5.532" height="10.417" style="fill:none;stroke:#000;stroke-width:2.08px;"/><rect x="688.506" y="319.792" width="5.532" height="10.417" style="fill:none;stroke:#000;stroke-width:2.08px;"/><rect x="694.038" y="318.287" width="13.425" height="13.425" style="fill:none;stroke:#000;stroke-width:2.08px;"/><path d="M715.25,313.542l0,22.916c-1.94,-0.035 -5.431,-2.083 -5.431,-4.166l0,-14.584c0,-2.542 3.365,-4.166 5.431,-4.166Z" style="fill:none;stroke:#000;stroke-width:2.08px;"/><path d="M720.782,313.542l0,22.916c1.94,-0.035 5.431,-2.083 5.431,-4.166l0,-14.584c0,-2.542 -3.364,-4.166 -5.431,-4.166Z" style="fill:none;stroke:#000;stroke-width:2.08px;"/></g><g id="Vice2" serif:id="Vice"><rect x="640.047" y="662.5" width="12.037" height="10.417" style="fill:none;stroke:#000;stroke-width:2.08px;"/><rect x="629.084" y="662.5" width="5.532" height="10.417" style="fill:none;stroke:#000;stroke-width:2.08px;"/><path d="M634.615,679.167l0,-22.917c1.941,0.035 5.432,2.083 5.432,4.167l-0,14.583c-0,2.542 -3.365,4.167 -5.432,4.167Z" style="fill:none;stroke:#000;stroke-width:2.08px;"/><path d="M629.084,679.167l-0,-22.917c-1.941,0.035 -5.432,2.083 -5.432,4.167l0,14.583c0,2.542 3.365,4.167 5.432,4.167Z" style="fill:none;stroke:#000;stroke-width:2.08px;"/></g><g id="Vice3" serif:id="Vice"><rect x="640.047" y="607.292" width="12.037" height="10.417" style="fill:none;stroke:#000;stroke-width:2.08px;"/><rect x="629.084" y="607.292" width="5.532" height="10.417" style="fill:none;stroke:#000;stroke-width:2.08px;"/><path d="M634.615,623.958l0,-22.916c1.941,0.035 5.432,2.083 5.432,4.166l-0,14.584c-0,2.542 -3.365,4.166 -5.432,4.166Z" style="fill:none;stroke:#000;stroke-width:2.08px;"/><path d="M629.084,623.958l-0,-22.916c-1.941,0.035 -5.432,2.083 -5.432,4.166l0,14.584c0,2.542 3.365,4.166 5.432,4.166Z" style="fill:none;stroke:#000;stroke-width:2.08px;"/></g><g id="Vice4" serif:id="Vice"><rect x="677.083" y="522.917" width="12.037" height="10.417" style="fill:none;stroke:#000;stroke-width:2.08px;"/><rect x="694.551" y="522.917" width="5.532" height="10.417" style="fill:none;stroke:#000;stroke-width:2.08px;"/><path d="M694.551,539.583l0,-22.916c-1.94,0.035 -5.431,2.083 -5.431,4.166l0,14.584c0,2.542 3.365,4.166 5.431,4.166Z" style="fill:none;stroke:#000;stroke-width:2.08px;"/><path d="M700.083,539.583l0,-22.916c1.94,0.035 5.431,2.083 5.431,4.166l0,14.584c0,2.542 -3.365,4.166 -5.431,4.166Z" style="fill:none;stroke:#000;stroke-width:2.08px;"/></g><g id="Vice5" serif:id="Vice"><rect x="625.463" y="319.792" width="12.037" height="10.417" style="fill:none;stroke:#000;stroke-width:2.08px;"/><rect x="614.5" y="319.792" width="5.532" height="10.417" style="fill:none;stroke:#000;stroke-width:2.08px;"/><path d="M620.032,336.458l0,-22.916c1.94,0.035 5.431,2.083 5.431,4.166l0,14.584c0,2.542 -3.365,4.166 -5.431,4.166Z" style="fill:none;stroke:#000;stroke-width:2.08px;"/><path d="M614.5,336.458l0,-22.916c-1.94,0.035 -5.431,2.083 -5.431,4.166l0,14.584c0,2.542 3.365,4.166 5.431,4.166Z" style="fill:none;stroke:#000;stroke-width:2.08px;"/></g><g id="Wood-Vice" serif:id="Wood Vice"><path d="M1012.5,288.542c-1.094,-1.042 -3.125,-3.268 -3.125,-7.292c0,-4.024 2.031,-6.25 3.125,-7.292l0,-5.208l4.167,-0l-0,25l-4.167,-0l0,-5.208Z" style="fill:none;stroke:#000;stroke-width:2.08px;"/><circle cx="1006.25" cy="281.25" r="2.083" style="fill:none;stroke:#000;stroke-width:2.08px;"/><rect x="1016.67" y="268.75" width="4.167" height="25" style="fill:none;stroke:#000;stroke-width:2.08px;"/></g></g></svg>