<svg xmlns="http://www.w3.org/2000/svg" xml:space="preserve" fill-rule="evenodd" stroke-linecap="round" stroke-linejoin="round" stroke-miterlimit="1.5" clip-rule="evenodd" viewBox="0 0 24 24"><path fill="none" stroke="#000" stroke-width="2" d="M10.147 4.24c.205-1.212.692-2.238 1.853-2.238m1.998 4.997c0-1.77.058-4.997-2-4.997M10.13 4.346l.017-.106m-.039.255.022-.149M6.994 12.96v9.037m5.983-14.996L15 7m1.001 14.997H6.994M15 7s.061 1.595.659 2.986l.038.085"/><path stroke="#000" stroke-width="2" d="M13.871 17.401s-.067 1.249-.497 1.387c-.264.085-1.374.074-1.374.074m-1.871-1.461s.067 1.249.497 1.387c.264.085 1.374.074 1.374.074m1.871-1.461h-3.742"/><path fill="none" stroke="#000" stroke-width="1.95" d="M6.839 14.932c-1.821 0-2.231.723-2.231 1.617 0 1.294-.368 5.447-1.601 5.447"/><path fill="none" stroke="#000" stroke-width="2" d="m2.002 2.002 19.994 19.994"/></svg>