<svg xmlns="http://www.w3.org/2000/svg" xml:space="preserve" fill-rule="evenodd" stroke-linecap="round" stroke-linejoin="round" stroke-miterlimit="1.5" clip-rule="evenodd" viewBox="0 0 24 24"><path fill="none" stroke="#000" stroke-width="2" d="M15 6.999s.136 3.562 2.001 4.686v10.311M9 7s-.14 3.561-2.006 4.685v10.311M9 7l6-.001m2.001 14.997H6.994M10 6.999c0-1.77-.058-4.997 2-4.997m1.998 4.997c0-1.77.058-4.997-2-4.997"/><path stroke="#000" stroke-width="2" d="M13.871 17.401s-.067 1.249-.497 1.387c-.264.085-1.374.074-1.374.074m-1.871-1.461s.067 1.249.497 1.387c.264.085 1.374.074 1.374.074m1.871-1.461h-3.742"/><path fill="none" stroke="#000" stroke-width="1.95" d="M6.839 14.931c-1.822 0-2.231.724-2.231 1.617 0 1.295-.368 5.448-1.601 5.448m14.164-7.065c1.822 0 2.231.724 2.231 1.617 0 1.295.368 5.448 1.601 5.448"/></svg>