<svg xmlns="http://www.w3.org/2000/svg" xml:space="preserve" width="800px" height="800px" viewBox="0 0 24 24"><path d="M18.942 5.556a16.3 16.3 0 0 0-4.126-1.297c-.178.321-.385.754-.529 1.097a15.2 15.2 0 0 0-4.573 0 12 12 0 0 0-.535-1.097 16.3 16.3 0 0 0-4.129 1.3c-2.611 3.946-3.319 7.794-2.965 11.587a16.5 16.5 0 0 0 5.061 2.593 13 13 0 0 0 1.084-1.785 10.7 10.7 0 0 1-1.707-.831q.215-.16.418-.331c3.291 1.539 6.866 1.539 10.118 0q.206.172.418.331c-.541.326-1.114.606-1.71.832a12.5 12.5 0 0 0 1.084 1.785 16.5 16.5 0 0 0 5.064-2.595c.415-4.396-.709-8.209-2.973-11.589M8.678 14.813c-.988 0-1.798-.922-1.798-2.045s.793-2.047 1.798-2.047 1.815.922 1.798 2.047c.001 1.123-.793 2.045-1.798 2.045m6.644 0c-.988 0-1.798-.922-1.798-2.045s.793-2.047 1.798-2.047 1.815.922 1.798 2.047c0 1.123-.793 2.045-1.798 2.045"/></svg>