<svg xmlns="http://www.w3.org/2000/svg" xml:space="preserve" fill-rule="evenodd" stroke-linejoin="round"
    stroke-miterlimit="2" clip-rule="evenodd" viewBox="0 0 970 349">
    <path fill="#CE5B4D" fill-rule="nonzero"
        d="M27.253.001c14.933 0 27.253 12.32 27.253 27.253 0 14.934-12.32 27.252-27.253 27.252S0 42.188 0 27.254C0 12.321 12.32.001 27.253.001M4.48 249.015h45.546V97.442H4.479z" />
    <path fill="currentColor" fill-rule="nonzero"
        d="M232.209 41.814h-83.626v55.627h78.4v41.813h-78.4v109.76h-48.534V0h132.16v41.813Zm152.694 126.559c0-25.387-19.415-45.919-45.547-45.919-26.133 0-45.546 20.532-45.546 45.919 0 24.64 19.04 45.547 45.546 45.547 26.507 0 45.547-20.907 45.547-45.547m19.787-63.467c16.053 14.56 27.252 36.96 27.252 63.467 0 26.133-11.2 48.533-27.252 63.093-13.815 12.693-34.72 22.773-65.334 22.773-30.613 0-51.52-10.08-65.333-22.773-16.053-14.56-27.253-36.96-27.253-63.093 0-26.507 11.2-48.907 27.253-63.467 13.814-12.693 34.72-22.773 65.333-22.773 30.614 0 51.519 10.08 65.334 22.773m62.344-17.545h45.545v24.267c7.094-13.814 16.802-20.534 20.16-22.4 7.095-4.48 16.053-7.094 26.88-7.094 7.84 0 14.187 1.867 19.413 3.734l-5.972 42.56c-5.974-4.107-11.946-5.974-21.28-5.974-8.588 0-21.28 1.867-30.24 13.067-8.587 10.827-8.96 24.64-8.96 35.84v77.653h-45.546V87.36Zm183.678 46.293c-7.467 6.72-14.56 17.547-14.56 34.347 0 14.186 5.227 24.64 11.947 31.733 9.706 10.453 22.028 14.186 32.854 14.186 11.199 0 22.399-4.106 30.239-11.2 9.333-8.586 14.56-21.653 14.56-34.72 0-15.306-6.72-25.76-13.067-32.48-8.958-9.333-19.413-13.066-31.732-13.066-14.56 0-24.641 5.973-30.241 11.2m30.032 162.98c13.068 0 22.235-5.06 28.21-10.66 10.452-10.082 11.571-22.774 11.571-35.84V227.36c-15.678 23.894-37.333 26.88-49.653 26.88-21.652 0-40.319-6.72-56-22.028-11.947-11.946-25.759-32.851-25.759-64.211 0-25.387 9.334-48.907 25.014-64.214 14.185-13.813 33.972-21.653 55.625-21.653 30.24 0 44.428 16.427 50.773 26.133V87.361h45.548v154.185c0 24.641-2.241 50.4-22.401 70.56-11.2 11.2-29.495 22.769-62.72 22.769M926.231 146.72c-3.735-22.027-21.653-32.48-38.453-32.48-16.8 0-34.347 10.827-38.08 32.48h76.533Zm41.812 57.12c-4.852 11.946-23.145 50.4-79.519 50.4-26.133 0-45.92-7.467-61.973-22.774-17.92-16.8-25.386-37.706-25.386-63.093 0-32.106 13.066-51.893 24.64-63.466 19.04-18.667 41.44-22.774 60.851-22.774 32.855 0 51.894 13.067 63.095 26.507 17.173 20.533 19.412 45.92 19.412 63.467v3.733h-120.96c0 9.707 2.614 20.16 7.842 27.253 4.853 6.72 14.933 15.307 32.48 15.307 17.173 0 30.238-8.213 37.706-21.28l41.812 6.72Z" />
    <path fill="#CE5B4D" fill-rule="nonzero"
        d="M4.469 298.684h4.652v6.31c1.619-2.327 3.281-4.027 4.99-5.102 2.351-1.43 4.825-2.147 7.418-2.147 1.752 0 3.416.347 4.99 1.04 1.575.695 2.862 1.616 3.86 2.768.998 1.154 1.862 2.803 2.594 4.95 1.548-2.863 3.48-5.038 5.801-6.526 2.322-1.488 4.819-2.232 7.492-2.232 2.498 0 4.703.638 6.614 1.912 1.912 1.276 3.332 3.055 4.26 5.336.928 2.282 1.392 5.706 1.392 10.27v19.932H53.78v-19.932c0-3.916-.276-6.607-.828-8.071-.552-1.467-1.495-2.647-2.831-3.54-1.336-.895-2.93-1.343-4.787-1.343-2.252 0-4.31.671-6.176 2.014-1.866 1.341-3.23 3.132-4.09 5.369-.86 2.237-1.291 5.972-1.291 11.207v14.296h-4.652v-18.692c0-4.406-.272-7.399-.815-8.976a7.51 7.51 0 0 0-2.841-3.792c-1.35-.951-2.957-1.426-4.817-1.426-2.15 0-4.16.654-6.031 1.962-1.873 1.31-3.257 3.072-4.153 5.285-.898 2.215-1.347 5.604-1.347 10.168v15.47H4.469v-36.51Zm106.813 3.591c-2.588 0-4.979.643-7.17 1.927-2.19 1.285-3.933 3.09-5.226 5.414-1.296 2.324-1.941 4.782-1.941 7.374 0 2.57.652 5.029 1.957 7.373 1.305 2.347 3.059 4.173 5.26 5.481 2.203 1.307 4.564 1.96 7.087 1.96 2.545 0 4.956-.648 7.236-1.944 2.278-1.296 4.03-3.05 5.26-5.261 1.229-2.212 1.841-4.704 1.841-7.475 0-4.222-1.377-7.754-4.13-10.593-2.757-2.837-6.147-4.256-10.174-4.256m18.59-3.59v36.509h-4.583v-6.275c-1.951 2.393-4.138 4.195-6.563 5.403-2.427 1.208-5.08 1.813-7.959 1.813-5.117 0-9.486-1.875-13.109-5.621-3.621-3.748-5.432-8.307-5.432-13.675 0-5.257 1.827-9.755 5.483-13.49 3.654-3.735 8.052-5.603 13.19-5.603 2.968 0 5.655.637 8.059 1.912 2.404 1.274 4.513 3.188 6.33 5.738v-6.712h4.585Zm35.956-14.095h4.65v28.83l16.763-14.737h6.83L174.2 316.101l21.035 19.093h-6.547l-18.21-16.437v16.437h-4.65V284.59Zm90.149 28.658c-.621-2.505-1.525-4.507-2.712-6.007-1.187-1.498-2.756-2.705-4.707-3.624a14.322 14.322 0 0 0-6.156-1.376c-3.549 0-6.598 1.152-9.148 3.458-1.864 1.677-3.272 4.193-4.225 7.549h26.948Zm0 9.832 3.92 2.081c-1.284 2.551-2.77 4.61-4.456 6.174a17.667 17.667 0 0 1-5.687 3.574c-2.106.816-4.49 1.226-7.15 1.226-5.899 0-10.51-1.952-13.836-5.858-3.326-3.902-4.988-8.314-4.988-13.236 0-4.632 1.406-8.76 4.222-12.382 3.57-4.608 8.347-6.914 14.335-6.914 6.164 0 11.085 2.362 14.767 7.082 2.616 3.333 3.946 7.494 3.99 12.482h-32.532c.09 4.242 1.432 7.716 4.027 10.428 2.595 2.712 5.8 4.068 9.615 4.068 1.841 0 3.632-.322 5.372-.969 1.741-.647 3.221-1.504 4.441-2.573 1.22-1.071 2.541-2.798 3.96-5.183m37.548-24.396h4.75v5.336c1.418-2.103 2.914-3.675 4.487-4.715 1.572-1.04 3.212-1.56 4.918-1.56 1.284 0 2.657.414 4.12 1.242l-2.426 3.958c-.974-.424-1.794-.636-2.458-.636-1.551 0-3.047.643-4.486 1.93-1.44 1.286-2.537 3.282-3.29 5.989-.576 2.081-.864 6.287-.864 12.617v12.35h-4.751v-36.511Zm65.925 3.994-2.99 3.121c-2.487-2.437-4.92-3.657-7.297-3.657-1.51 0-2.804.504-3.881 1.51s-1.616 2.18-1.616 3.523c0 1.187.444 2.315 1.332 3.39.888 1.096 2.753 2.381 5.595 3.858 3.462 1.812 5.816 3.558 7.058 5.235 1.222 1.701 1.832 3.613 1.832 5.739 0 2.997-1.042 5.536-3.128 7.617-2.086 2.08-4.693 3.121-7.821 3.121-2.085 0-4.076-.46-5.973-1.376-1.898-.917-3.467-2.181-4.708-3.792l2.922-3.356c2.376 2.707 4.896 4.06 7.562 4.06 1.864 0 3.452-.604 4.761-1.812 1.31-1.208 1.967-2.628 1.967-4.262 0-1.342-.434-2.538-1.3-3.59-.866-1.028-2.819-2.326-5.86-3.893-3.263-1.699-5.483-3.377-6.66-5.032-1.176-1.656-1.766-3.545-1.766-5.672 0-2.773.939-5.079 2.814-6.913 1.874-1.834 4.242-2.751 7.106-2.751 3.328 0 6.679 1.644 10.051 4.932m52.434-.403c-4.023 0-7.41 1.419-10.161 4.256-2.752 2.839-4.127 6.37-4.127 10.593 0 2.771.613 5.263 1.84 7.475 1.227 2.212 2.983 3.965 5.27 5.261 2.289 1.296 4.703 1.944 7.245 1.944 2.497 0 4.845-.653 7.044-1.96 2.198-1.308 3.95-3.134 5.254-5.481 1.304-2.344 1.956-4.803 1.956-7.373 0-2.592-.646-5.05-1.94-7.374-1.293-2.324-3.032-4.129-5.22-5.414-2.189-1.284-4.576-1.927-7.161-1.927m-18.608-3.59h4.652v6.711c1.837-2.55 3.95-4.464 6.34-5.738 2.39-1.275 5.057-1.912 8-1.912 5.135 0 9.528 1.868 13.179 5.604 3.65 3.734 5.477 8.232 5.477 13.489 0 5.368-1.81 9.927-5.428 13.675-3.619 3.746-7.983 5.62-13.095 5.62-2.878 0-5.521-.604-7.933-1.812-2.413-1.208-4.593-3.01-6.54-5.403v19.63h-4.652v-49.865Zm89.302 3.59c-2.588 0-4.977.643-7.17 1.927-2.19 1.285-3.933 3.09-5.227 5.414-1.295 2.324-1.942 4.782-1.942 7.374 0 2.57.654 5.029 1.959 7.373 1.304 2.347 3.059 4.173 5.26 5.481 2.203 1.307 4.564 1.96 7.088 1.96 2.544 0 4.955-.648 7.233-1.944 2.28-1.296 4.034-3.05 5.263-5.261 1.228-2.212 1.841-4.704 1.841-7.475 0-4.222-1.378-7.754-4.132-10.593-2.756-2.837-6.145-4.256-10.173-4.256m18.59-3.59v36.509h-4.583v-6.275c-1.951 2.393-4.139 4.195-6.564 5.403-2.424 1.208-5.079 1.813-7.958 1.813-5.117 0-9.486-1.875-13.109-5.621-3.623-3.748-5.432-8.307-5.432-13.675 0-5.257 1.827-9.755 5.481-13.49 3.656-3.735 8.052-5.603 13.194-5.603 2.966 0 5.653.637 8.057 1.912 2.404 1.274 4.513 3.188 6.33 5.738v-6.712h4.585Zm71.078 7.584-3.69 2.315c-3.185-4.272-7.533-6.408-13.043-6.408-4.403 0-8.059 1.429-10.968 4.289-2.91 2.861-4.366 6.335-4.366 10.425 0 2.659.67 5.162 2.008 7.508 1.34 2.346 3.176 4.167 5.511 5.463 2.333 1.296 4.95 1.944 7.85 1.944 5.309 0 9.646-2.135 13.009-6.408l3.689 2.45c-1.728 2.626-4.05 4.666-6.963 6.114-2.912 1.448-6.23 2.173-9.952 2.173-5.714 0-10.454-1.834-14.22-5.504-3.768-3.668-5.649-8.13-5.649-13.389 0-3.533.88-6.816 2.641-9.848 1.762-3.032 4.18-5.397 7.26-7.096 3.08-1.701 6.524-2.552 10.335-2.552 2.392 0 4.701.37 6.928 1.108 2.227.737 4.115 1.7 5.665 2.887 1.551 1.185 2.87 2.694 3.955 4.529m64.896 6.979c-.621-2.505-1.525-4.507-2.712-6.007-1.187-1.498-2.756-2.705-4.707-3.624a14.322 14.322 0 0 0-6.156-1.376c-3.549 0-6.598 1.152-9.148 3.458-1.864 1.677-3.272 4.193-4.225 7.549h26.948Zm0 9.832 3.92 2.081c-1.284 2.551-2.77 4.61-4.456 6.174a17.667 17.667 0 0 1-5.687 3.574c-2.106.816-4.49 1.226-7.15 1.226-5.899 0-10.51-1.952-13.836-5.858-3.326-3.902-4.988-8.314-4.988-13.236 0-4.632 1.406-8.76 4.222-12.382 3.57-4.608 8.347-6.914 14.335-6.914 6.164 0 11.085 2.362 14.767 7.082 2.616 3.333 3.946 7.494 3.99 12.482h-32.532c.09 4.242 1.432 7.716 4.027 10.428 2.595 2.712 5.8 4.068 9.615 4.068 1.841 0 3.632-.322 5.372-.969 1.741-.647 3.221-1.504 4.441-2.573 1.22-1.071 2.541-2.798 3.96-5.183" />
</svg>